<?xml version="1.0" encoding="UTF-8" standalone="no"?>
<!-- Created with Inkscape (http://www.inkscape.org/) -->

<svg
   xmlns:dc="http://purl.org/dc/elements/1.1/"
   xmlns:cc="http://creativecommons.org/ns#"
   xmlns:rdf="http://www.w3.org/1999/02/22-rdf-syntax-ns#"
   xmlns:svg="http://www.w3.org/2000/svg"
   xmlns="http://www.w3.org/2000/svg"
   xmlns:sodipodi="http://sodipodi.sourceforge.net/DTD/sodipodi-0.dtd"
   xmlns:inkscape="http://www.inkscape.org/namespaces/inkscape"
   version="1.1"
   id="svg2"
   xml:space="preserve"
   width="361.27255"
   height="498.95331"
   viewBox="0 0 361.27254 498.95328"
   sodipodi:docname="logo.svg"
   inkscape:version="0.92.3 (2405546, 2018-03-11)"><metadata
     id="metadata8"><rdf:RDF><cc:Work
         rdf:about=""><dc:format>image/svg+xml</dc:format><dc:type
           rdf:resource="http://purl.org/dc/dcmitype/StillImage" /><dc:title></dc:title></cc:Work></rdf:RDF></metadata><defs
     id="defs6"><clipPath
       clipPathUnits="userSpaceOnUse"
       id="clipPath18"><path
         d="M 0,0 H 800 V 800 H 0 Z"
         id="path16"
         inkscape:connector-curvature="0" /></clipPath><radialGradient
       fx="0"
       fy="0"
       cx="0"
       cy="0"
       r="1"
       gradientUnits="userSpaceOnUse"
       gradientTransform="matrix(711.24957,0,0,-515.7262,400.00195,400)"
       spreadMethod="pad"
       id="radialGradient32"><stop
         style="stop-opacity:1;stop-color:#ffffff"
         offset="0"
         id="stop24" /><stop
         style="stop-opacity:1;stop-color:#ffffff"
         offset="0.456989"
         id="stop26" /><stop
         style="stop-opacity:1;stop-color:#ffffff"
         offset="0.62252894"
         id="stop28" /><stop
         style="stop-opacity:1;stop-color:#92caee"
         offset="1"
         id="stop30" /></radialGradient><clipPath
       clipPathUnits="userSpaceOnUse"
       id="clipPath42"><path
         d="M 0,800 H 800 V 0 H 0 Z"
         id="path40"
         inkscape:connector-curvature="0" /></clipPath><clipPath
       clipPathUnits="userSpaceOnUse"
       id="clipPath182"><path
         d="M 0,800 H 800 V 0 H 0 Z"
         id="path180"
         inkscape:connector-curvature="0" /></clipPath><clipPath
       clipPathUnits="userSpaceOnUse"
       id="clipPath190"><path
         d="M 98.7998,268.639 H 725.316 V 219.135 H 98.7998 Z"
         id="path188"
         inkscape:connector-curvature="0" /></clipPath><clipPath
       clipPathUnits="userSpaceOnUse"
       id="clipPath194"><path
         d="m 725.316,243.889 c 0,-13.672 -140.257,-24.754 -313.277,-24.754 -173.017,0 -313.239,11.082 -313.239,24.754 0,13.668 140.222,24.75 313.239,24.75 173.02,0 313.277,-11.082 313.277,-24.75"
         id="path192"
         inkscape:connector-curvature="0" /></clipPath><radialGradient
       fx="0"
       fy="0"
       cx="0"
       cy="0"
       r="1"
       gradientUnits="userSpaceOnUse"
       gradientTransform="matrix(313.25143,0,0,-24.750763,412.125,243.88672)"
       spreadMethod="pad"
       id="radialGradient204"><stop
         style="stop-opacity:1;stop-color:#6c6f71"
         offset="0"
         id="stop196" /><stop
         style="stop-opacity:1;stop-color:#6c6f71"
         offset="0.22043"
         id="stop198" /><stop
         style="stop-opacity:1;stop-color:#ffffff"
         offset="0.48964549"
         id="stop200" /><stop
         style="stop-opacity:1;stop-color:#ffffff"
         offset="1"
         id="stop202" /></radialGradient><clipPath
       clipPathUnits="userSpaceOnUse"
       id="clipPath226"><path
         d="M 302.745,515.033 C 265.368,454.056 258.293,409.789 270.001,367.955 v 0 c 9.147,-32.805 47.198,-97.563 130.307,-97.563 v 0 c 83.111,0 121.165,64.758 130.309,97.563 v 0 c 11.707,41.834 4.633,86.101 -32.745,147.078 v 0 c -27.499,44.879 -97.564,129.574 -97.564,129.574 v 0 c 0,0 -70.063,-84.695 -97.563,-129.574"
         id="path224"
         inkscape:connector-curvature="0" /></clipPath><linearGradient
       x1="0"
       y1="0"
       x2="1"
       y2="0"
       gradientUnits="userSpaceOnUse"
       gradientTransform="matrix(-2.97e-5,-678.47394,-678.47394,2.97e-5,400.30811,966.25928)"
       spreadMethod="pad"
       id="linearGradient242"><stop
         style="stop-opacity:1;stop-color:#ffffff"
         offset="0"
         id="stop232" /><stop
         style="stop-opacity:1;stop-color:#30f6ff"
         offset="0.38252348"
         id="stop234" /><stop
         style="stop-opacity:1;stop-color:#30f6ff"
         offset="0.510753"
         id="stop236" /><stop
         style="stop-opacity:1;stop-color:#30f6ff"
         offset="0.66321076"
         id="stop238" /><stop
         style="stop-opacity:1;stop-color:#0039a9"
         offset="1"
         id="stop240" /></linearGradient><clipPath
       clipPathUnits="userSpaceOnUse"
       id="clipPath252"><path
         d="M 0,800 H 800 V 0 H 0 Z"
         id="path250"
         inkscape:connector-curvature="0" /></clipPath><clipPath
       clipPathUnits="userSpaceOnUse"
       id="clipPath260"><path
         d="M 287.827,596.844 H 535.783 V 270.393 H 287.827 Z"
         id="path258"
         inkscape:connector-curvature="0" /></clipPath><clipPath
       clipPathUnits="userSpaceOnUse"
       id="clipPath264"><path
         d="m 530.617,367.955 c 11.707,41.834 4.633,86.101 -32.745,147.078 -13.784,22.494 -38.26,54.988 -59.249,81.811 -27.492,-25.911 -71.912,-68.819 -94.789,-96.596 -47.053,-57.09 -60.667,-101.422 -54.681,-145.953 1.522,-11.447 5.758,-26.856 13.73,-42.815 21.144,-22.388 52.771,-41.087 97.426,-41.087 83.11,0 121.164,64.757 130.308,97.562"
         id="path262"
         inkscape:connector-curvature="0" /></clipPath><linearGradient
       x1="0"
       y1="0"
       x2="1"
       y2="0"
       gradientUnits="userSpaceOnUse"
       gradientTransform="matrix(-7e-6,160.44325,160.44325,7e-6,411.80469,425.15967)"
       spreadMethod="pad"
       id="linearGradient276"><stop
         style="stop-opacity:1;stop-color:#ffffff"
         offset="0"
         id="stop266" /><stop
         style="stop-opacity:1;stop-color:#30f6ff"
         offset="0.45948606"
         id="stop268" /><stop
         style="stop-opacity:1;stop-color:#30f6ff"
         offset="0.478495"
         id="stop270" /><stop
         style="stop-opacity:1;stop-color:#30f6ff"
         offset="0.53250892"
         id="stop272" /><stop
         style="stop-opacity:1;stop-color:#0039a9"
         offset="1"
         id="stop274" /></linearGradient><clipPath
       clipPathUnits="userSpaceOnUse"
       id="clipPath298"><path
         d="M 264.834,596.844 H 512.793 V 270.393 H 264.834 Z"
         id="path296"
         inkscape:connector-curvature="0" /></clipPath><clipPath
       clipPathUnits="userSpaceOnUse"
       id="clipPath302"><path
         d="m 270.001,367.955 c -11.708,41.834 -4.633,86.101 32.744,147.078 13.788,22.494 38.26,54.988 59.25,81.811 27.495,-25.911 71.911,-68.819 94.788,-96.596 47.057,-57.09 60.668,-101.422 54.686,-145.953 -1.528,-11.447 -5.759,-26.856 -13.735,-42.815 -21.144,-22.388 -52.77,-41.087 -97.425,-41.087 -83.11,0 -121.161,64.757 -130.308,97.562"
         id="path300"
         inkscape:connector-curvature="0" /></clipPath><linearGradient
       x1="0"
       y1="0"
       x2="1"
       y2="0"
       gradientUnits="userSpaceOnUse"
       gradientTransform="matrix(-9.1e-6,207.46069,207.46069,9.1e-6,388.81396,407.56689)"
       spreadMethod="pad"
       id="linearGradient314"><stop
         style="stop-opacity:1;stop-color:#ffffff"
         offset="0"
         id="stop304" /><stop
         style="stop-opacity:1;stop-color:#30f6ff"
         offset="0.45948606"
         id="stop306" /><stop
         style="stop-opacity:1;stop-color:#30f6ff"
         offset="0.478495"
         id="stop308" /><stop
         style="stop-opacity:1;stop-color:#30f6ff"
         offset="0.53250892"
         id="stop310" /><stop
         style="stop-opacity:1;stop-color:#0039a9"
         offset="1"
         id="stop312" /></linearGradient><clipPath
       clipPathUnits="userSpaceOnUse"
       id="clipPath336"><path
         d="M 298.217,545.531 H 535.783 V 270.393 H 298.217 Z"
         id="path334"
         inkscape:connector-curvature="0" /></clipPath><clipPath
       clipPathUnits="userSpaceOnUse"
       id="clipPath340"><path
         d="m 477.311,545.531 c -31.078,-18.642 -72.398,-44.325 -96.147,-62.768 -56.493,-43.854 -78.741,-82.776 -82.549,-126.048 -1.031,-11.572 -0.221,-27.809 4.369,-45.346 21.144,-22.334 52.749,-40.976 97.325,-40.976 83.11,0 121.164,64.757 130.308,97.562 11.707,41.834 4.633,86.101 -32.745,147.078 -5.465,8.916 -12.623,19.416 -20.561,30.498"
         id="path338"
         inkscape:connector-curvature="0" /></clipPath><linearGradient
       x1="0"
       y1="0"
       x2="1"
       y2="0"
       gradientUnits="userSpaceOnUse"
       gradientTransform="matrix(-9.8e-6,223.7296,223.7296,9.8e-6,417,333.49121)"
       spreadMethod="pad"
       id="linearGradient352"><stop
         style="stop-opacity:1;stop-color:#ffffff"
         offset="0"
         id="stop342" /><stop
         style="stop-opacity:1;stop-color:#30f6ff"
         offset="0.45948606"
         id="stop344" /><stop
         style="stop-opacity:1;stop-color:#30f6ff"
         offset="0.478495"
         id="stop346" /><stop
         style="stop-opacity:1;stop-color:#30f6ff"
         offset="0.53250892"
         id="stop348" /><stop
         style="stop-opacity:1;stop-color:#0039a9"
         offset="1"
         id="stop350" /></linearGradient><clipPath
       clipPathUnits="userSpaceOnUse"
       id="clipPath374"><path
         d="m 264.829,545.531 h 237.57 V 270.393 h -237.57 z"
         id="path372"
         inkscape:connector-curvature="0" /></clipPath><clipPath
       clipPathUnits="userSpaceOnUse"
       id="clipPath378"><path
         d="m 323.3,545.531 c 31.084,-18.642 72.401,-44.325 96.149,-62.768 56.497,-43.854 78.745,-82.776 82.557,-126.048 1.024,-11.572 0.214,-27.809 -4.372,-45.346 -21.153,-22.334 -52.746,-40.976 -97.325,-40.976 -83.118,0 -121.168,64.757 -130.315,97.562 -11.705,41.834 -4.634,86.101 32.751,147.078 5.469,8.916 12.623,19.416 20.555,30.498"
         id="path376"
         inkscape:connector-curvature="0" /></clipPath><linearGradient
       x1="0"
       y1="0"
       x2="1"
       y2="0"
       gradientUnits="userSpaceOnUse"
       gradientTransform="matrix(-6.4e-6,147.14088,147.14088,6.4e-6,383.61377,330.71387)"
       spreadMethod="pad"
       id="linearGradient390"><stop
         style="stop-opacity:1;stop-color:#ffffff"
         offset="0"
         id="stop380" /><stop
         style="stop-opacity:1;stop-color:#30f6ff"
         offset="0.45948606"
         id="stop382" /><stop
         style="stop-opacity:1;stop-color:#30f6ff"
         offset="0.478495"
         id="stop384" /><stop
         style="stop-opacity:1;stop-color:#30f6ff"
         offset="0.53250892"
         id="stop386" /><stop
         style="stop-opacity:1;stop-color:#0039a9"
         offset="1"
         id="stop388" /></linearGradient><clipPath
       clipPathUnits="userSpaceOnUse"
       id="clipPath412"><path
         d="M 266.015,521.891 H 444.642 V 279.797 H 266.015 Z"
         id="path410"
         inkscape:connector-curvature="0" /></clipPath><clipPath
       clipPathUnits="userSpaceOnUse"
       id="clipPath416"><path
         d="M 400.309,521.891 266.015,387.602 c 0.872,-6.637 2.174,-13.176 3.986,-19.647 7.01,-25.137 31.03,-69.018 79.266,-88.158 l 95.375,95.371 z"
         id="path414"
         inkscape:connector-curvature="0" /></clipPath><linearGradient
       x1="0"
       y1="0"
       x2="1"
       y2="0"
       gradientUnits="userSpaceOnUse"
       gradientTransform="matrix(176.83081,145.58052,145.58052,-176.83081,191.13086,249.64551)"
       spreadMethod="pad"
       id="linearGradient428"><stop
         style="stop-opacity:1;stop-color:#ffffff"
         offset="0"
         id="stop418" /><stop
         style="stop-opacity:1;stop-color:#30f6ff"
         offset="0.45948606"
         id="stop420" /><stop
         style="stop-opacity:1;stop-color:#30f6ff"
         offset="0.478495"
         id="stop422" /><stop
         style="stop-opacity:1;stop-color:#30f6ff"
         offset="0.53250892"
         id="stop424" /><stop
         style="stop-opacity:1;stop-color:#0039a9"
         offset="1"
         id="stop426" /></linearGradient></defs><sodipodi:namedview
     pagecolor="#ffffff"
     bordercolor="#666666"
     borderopacity="1"
     objecttolerance="10"
     gridtolerance="10"
     guidetolerance="10"
     inkscape:pageopacity="0"
     inkscape:pageshadow="2"
     inkscape:window-width="1920"
     inkscape:window-height="1043"
     id="namedview4"
     showgrid="false"
     fit-margin-top="0"
     fit-margin-left="0"
     fit-margin-right="0"
     fit-margin-bottom="0"
     inkscape:zoom="0.44249997"
     inkscape:cx="575.51093"
     inkscape:cy="17.439622"
     inkscape:window-x="0"
     inkscape:window-y="0"
     inkscape:window-maximized="1"
     inkscape:current-layer="g10" /><g
     id="g10"
     inkscape:groupmode="layer"
     inkscape:label="17735-NR86UX"
     transform="matrix(1.3333333,0,0,-1.3333333,-353.10532,859.47598)"><g
       id="g220"><g
         id="g222"
         clip-path="url(#clipPath226)"><g
           id="g228"><g
             id="g230"><path
               d="M 302.745,515.033 C 265.368,454.056 258.293,409.789 270.001,367.955 v 0 c 9.147,-32.805 47.198,-97.563 130.307,-97.563 v 0 c 83.111,0 121.165,64.758 130.309,97.563 v 0 c 11.707,41.834 4.633,86.101 -32.745,147.078 v 0 c -27.499,44.879 -97.564,129.574 -97.564,129.574 v 0 c 0,0 -70.063,-84.695 -97.563,-129.574"
               style="fill:url(#linearGradient242);stroke:none"
               id="path244"
               inkscape:connector-curvature="0" /></g></g></g></g><g
       clip-path="url(#clipPath252)"
       id="g248"><g
         id="g254"><g
           id="g256" /><g
           id="g290"><g
             style="opacity:0.39999402"
             id="g288"
             clip-path="url(#clipPath260)"><g
               id="g286"><g
                 id="g284"
                 clip-path="url(#clipPath264)"><g
                   id="g282"><g
                     id="g280"><path
                       inkscape:connector-curvature="0"
                       id="path278"
                       style="fill:url(#linearGradient276);stroke:none"
                       d="m 530.617,367.955 c 11.707,41.834 4.633,86.101 -32.745,147.078 -13.784,22.494 -38.26,54.988 -59.249,81.811 -27.492,-25.911 -71.912,-68.819 -94.789,-96.596 -47.053,-57.09 -60.667,-101.422 -54.681,-145.953 1.522,-11.447 5.758,-26.856 13.73,-42.815 21.144,-22.388 52.771,-41.087 97.426,-41.087 83.11,0 121.164,64.757 130.308,97.562" /></g></g></g></g></g></g></g><g
         id="g292"><g
           id="g294" /><g
           id="g328"><g
             style="opacity:0.39999402"
             id="g326"
             clip-path="url(#clipPath298)"><g
               id="g324"><g
                 id="g322"
                 clip-path="url(#clipPath302)"><g
                   id="g320"><g
                     id="g318"><path
                       inkscape:connector-curvature="0"
                       id="path316"
                       style="fill:url(#linearGradient314);stroke:none"
                       d="m 270.001,367.955 c -11.708,41.834 -4.633,86.101 32.744,147.078 13.788,22.494 38.26,54.988 59.25,81.811 27.495,-25.911 71.911,-68.819 94.788,-96.596 47.057,-57.09 60.668,-101.422 54.686,-145.953 -1.528,-11.447 -5.759,-26.856 -13.735,-42.815 -21.144,-22.388 -52.77,-41.087 -97.425,-41.087 -83.11,0 -121.161,64.757 -130.308,97.562" /></g></g></g></g></g></g></g><g
         id="g330"><g
           id="g332" /><g
           id="g366"><g
             style="opacity:0.39999402"
             id="g364"
             clip-path="url(#clipPath336)"><g
               id="g362"><g
                 id="g360"
                 clip-path="url(#clipPath340)"><g
                   id="g358"><g
                     id="g356"><path
                       inkscape:connector-curvature="0"
                       id="path354"
                       style="fill:url(#linearGradient352);stroke:none"
                       d="m 477.311,545.531 c -31.078,-18.642 -72.398,-44.325 -96.147,-62.768 -56.493,-43.854 -78.741,-82.776 -82.549,-126.048 -1.031,-11.572 -0.221,-27.809 4.369,-45.346 21.144,-22.334 52.749,-40.976 97.325,-40.976 83.11,0 121.164,64.757 130.308,97.562 11.707,41.834 4.633,86.101 -32.745,147.078 -5.465,8.916 -12.623,19.416 -20.561,30.498" /></g></g></g></g></g></g></g><g
         id="g368"><g
           id="g370" /><g
           id="g404"><g
             style="opacity:0.39999402"
             id="g402"
             clip-path="url(#clipPath374)"><g
               id="g400"><g
                 id="g398"
                 clip-path="url(#clipPath378)"><g
                   id="g396"><g
                     id="g394"><path
                       inkscape:connector-curvature="0"
                       id="path392"
                       style="fill:url(#linearGradient390);stroke:none"
                       d="m 323.3,545.531 c 31.084,-18.642 72.401,-44.325 96.149,-62.768 56.497,-43.854 78.745,-82.776 82.557,-126.048 1.024,-11.572 0.214,-27.809 -4.372,-45.346 -21.153,-22.334 -52.746,-40.976 -97.325,-40.976 -83.118,0 -121.168,64.757 -130.315,97.562 -11.705,41.834 -4.634,86.101 32.751,147.078 5.469,8.916 12.623,19.416 20.555,30.498" /></g></g></g></g></g></g></g><g
         id="g406"><g
           id="g408" /><g
           id="g442"><g
             style="opacity:0.80000299"
             id="g440"
             clip-path="url(#clipPath412)"><g
               id="g438"><g
                 id="g436"
                 clip-path="url(#clipPath416)"><g
                   id="g434"><g
                     id="g432"><path
                       inkscape:connector-curvature="0"
                       id="path430"
                       style="fill:url(#linearGradient428);stroke:none"
                       d="M 400.309,521.891 266.015,387.602 c 0.872,-6.637 2.174,-13.176 3.986,-19.647 7.01,-25.137 31.03,-69.018 79.266,-88.158 l 95.375,95.371 z" /></g></g></g></g></g></g></g><g
         transform="translate(356.9961,464.3677)"
         id="g444"><path
           inkscape:connector-curvature="0"
           id="path446"
           style="fill:#ffffff;fill-opacity:1;fill-rule:nonzero;stroke:none"
           d="m 0,0 c 12.207,19.922 43.313,57.523 43.313,57.523 0,0 31.109,-37.601 43.316,-57.523 16.588,-27.069 19.734,-46.724 14.533,-65.293 -4.055,-14.561 -20.945,-43.315 -57.849,-43.315 -36.9,0 -53.788,28.754 -57.85,43.315 C -19.734,-46.724 -16.591,-27.069 0,0" /></g></g></g></svg>